<svg width="470" height="438" viewBox="0 0 470 438" fill="none" xmlns="http://www.w3.org/2000/svg">
<rect x="295" y="67" width="139" height="350" fill="#FBF7EE"/>
<rect x="175" y="377" width="123" height="41" fill="#FBF7EE"/>
<path d="M110.5 21.9999L114 86L48.4998 86L110.5 21.9999Z" fill="#9FDEB2"/>
<rect x="37" y="88" width="258" height="289" fill="#9FDEB2"/>
<rect x="107" y="17" width="181" height="64" fill="#9FDEB2"/>
<path d="M206 147H69V161H206V147Z" fill="black"/>
<path d="M206 206H69V220H206V206Z" fill="black"/>
<path d="M206 265H69V279H206V265Z" fill="black"/>
<path d="M235.615 249.927V235.077V231.077H239.615L285.766 231.077L285.769 231.077M235.615 249.927L295 228.769C294.997 230.442 294.024 232.045 292.293 233.227C290.563 234.41 288.217 235.075 285.769 235.077V231.077M235.615 249.927C235.328 249.999 234.981 250.022 234.638 249.976C234.263 249.925 234.05 249.813 233.992 249.774L180.177 213L233.992 176.226C234.05 176.187 234.263 176.075 234.638 176.024C234.981 175.978 235.328 176.001 235.615 176.073V190.923V194.923H239.615H285.766C287.547 194.924 289.076 195.419 290.037 196.075C290.977 196.718 291 197.208 291 197.237C291 197.237 291 197.237 291 197.237V228.763C291 228.763 291 228.763 291 228.763M235.615 249.927L291 228.763M285.769 231.077C287.549 231.075 289.076 230.581 290.037 229.925C290.977 229.282 291 228.792 291 228.763M285.769 231.077L291 228.763" fill="#9FDEB2" stroke="black" stroke-width="8"/>
<path d="M300.477 56.541V8H110.467L31 87.467V382.224H170.235V430.765H439.713V56.541H300.477ZM106.366 31.899V83.366H54.899L106.366 31.899ZM45 97.366H120.366V22H286.477V368.224H45V97.366ZM425.713 416.765H184.235V382.224H300.478V368.224V352.844V338.844V323.464V309.464V294.084V280.084V264.704H393.753V250.704H300.478V235.324H393.753V221.324H300.478V179.119H393.753V165.119H300.478V70.541H425.713V416.765Z" fill="black"/>
<path d="M312.385 224.073L312.385 238.923L312.385 242.923L308.385 242.923L262.234 242.923L262.231 242.923M312.385 224.073L253 245.231C253.003 243.558 253.976 241.955 255.707 240.773C257.437 239.59 259.783 238.925 262.231 238.923L262.231 242.923M312.385 224.073C312.672 224.001 313.019 223.978 313.362 224.024C313.737 224.075 313.95 224.187 314.008 224.226L367.823 261L314.008 297.774C313.95 297.813 313.737 297.925 313.362 297.976C313.019 298.022 312.672 297.999 312.385 297.927L312.385 283.077L312.385 279.077L308.385 279.077L262.234 279.077C260.453 279.076 258.924 278.581 257.963 277.925C257.023 277.282 257 276.792 257 276.763C257 276.763 257 276.763 257 276.763L257 245.237C257 245.237 257 245.237 257 245.237M312.385 224.073L257 245.237M262.231 242.923C260.451 242.925 258.924 243.419 257.963 244.075C257.023 244.718 257 245.208 257 245.237M262.231 242.923L257 245.237" fill="#FBF7EE" stroke="black" stroke-width="8"/>
</svg>
