<svg width="611" height="684" viewBox="0 0 611 684" fill="none" xmlns="http://www.w3.org/2000/svg">
<rect x="36" y="130" width="435" height="479" fill="#FBF7EE"/>
<rect x="66" y="34" width="318" height="96" fill="#FBF7EE"/>
<path d="M111.459 263.5H280.541C282.289 263.5 284.048 264.619 285.391 266.779C286.731 268.935 287.5 271.892 287.5 275C287.5 278.108 286.731 281.065 285.391 283.221C284.048 285.381 282.289 286.5 280.541 286.5H111.459C109.711 286.5 107.952 285.381 106.609 283.221C105.269 281.065 104.5 278.108 104.5 275C104.5 271.892 105.269 268.935 106.609 266.779C107.952 264.619 109.711 263.5 111.459 263.5Z" fill="black" stroke="black"/>
<path d="M382 36L469 130H382V36Z" fill="#9FDEB2"/>
<path d="M111.459 106.5H280.541C282.289 106.5 284.048 107.619 285.391 109.779C286.731 111.935 287.5 114.892 287.5 118C287.5 121.108 286.731 124.065 285.391 126.221C284.048 128.381 282.289 129.5 280.541 129.5H111.459C109.711 129.5 107.952 128.381 106.609 126.221C105.269 124.065 104.5 121.108 104.5 118C104.5 114.892 105.269 111.935 106.609 109.779C107.952 107.619 109.711 106.5 111.459 106.5Z" fill="black" stroke="black"/>
<path d="M396.702 68.7729L395.833 67.8274V69.1111V120.778V121.278H396.333H443.778H444.916L444.146 120.44L396.702 68.7729ZM364.833 44.1111V43.6111H364.333H74.2267C73.3647 43.5958 72.5082 43.7521 71.7071 44.071C70.9045 44.3905 70.1737 44.8667 69.5573 45.4719C68.9409 46.0771 68.4513 46.7991 68.1171 47.5956C67.783 48.3922 67.611 49.2473 67.6111 50.1111C67.6111 50.1111 67.6111 50.1112 67.6111 50.1112V596.111C67.6111 597.864 68.3076 599.546 69.5475 600.786C70.7873 602.026 72.4688 602.722 74.2222 602.722H457.778C459.531 602.722 461.213 602.026 462.453 600.786C463.692 599.546 464.389 597.864 464.389 596.111V152.889V152.389H463.889L380.337 152.389C380.336 152.389 380.335 152.389 380.335 152.389C376.232 152.36 372.306 150.718 369.405 147.817C366.504 144.915 364.862 140.988 364.833 136.885V44.1111ZM74.2222 12.5H387.114L495.5 130.195V596.11C495.471 606.095 491.484 615.662 484.413 622.712C477.342 629.763 467.763 633.722 457.778 633.722H74.2222C64.2366 633.722 54.6584 629.763 47.5873 622.712C40.5163 615.662 36.5292 606.096 36.5 596.11V50.1118C36.5292 40.1266 40.5163 30.5602 47.5873 23.5098C54.6584 16.4592 64.2366 12.5 74.2222 12.5Z" fill="black" stroke="black"/>
<path d="M111.459 184.5H280.541C282.289 184.5 284.048 185.619 285.391 187.779C286.731 189.935 287.5 192.892 287.5 196C287.5 199.108 286.731 202.065 285.391 204.221C284.048 206.381 282.289 207.5 280.541 207.5H111.459C109.711 207.5 107.952 206.381 106.609 204.221C105.269 202.065 104.5 199.108 104.5 196C104.5 192.892 105.269 189.935 106.609 187.779C107.952 185.619 109.711 184.5 111.459 184.5Z" fill="black" stroke="black"/>
<path d="M543.761 655.15V661.65H550.261H566.577C567.636 661.65 568.5 662.512 568.5 663.575C568.5 664.64 567.638 665.5 566.577 665.5H45.4229C44.3616 665.5 43.5 664.64 43.5 663.575C43.5 662.512 44.3638 661.65 45.4229 661.65H61.7437H68.2437V655.15V585.83H139.469V655.15V661.65H145.969H162.815H169.315V655.15V488.94H240.539V655.15V661.65H247.039H263.885H270.385V655.15V345.72H341.615V655.15V661.65H348.115H364.956H371.456V655.15V434.18H442.69V655.15V661.65H449.19H466.031H472.531V655.15V202.5H543.761V655.15ZM469.855 202.541C469.855 202.54 469.86 202.539 469.87 202.538C469.86 202.54 469.855 202.541 469.855 202.541Z" fill="#9FDEB2" stroke="black" stroke-width="13"/>
</svg>
