<svg width="726" height="303" viewBox="0 0 726 303" fill="none" xmlns="http://www.w3.org/2000/svg">
<path d="M167.887 14.376C92.1887 14.376 30.9878 75.6395 30.9878 151.279C30.9878 226.918 92.2994 288.182 167.887 288.182C243.476 288.182 304.898 226.918 304.898 151.279C304.898 75.6395 243.586 14.376 167.887 14.376ZM263.175 196.508C263.175 224.154 240.819 246.492 213.152 246.492H122.623C94.9555 246.492 72.6 224.154 72.6 196.508V106.05C72.6 78.4041 95.0662 56.0661 122.623 56.0661H213.152C240.819 56.0661 263.175 78.4041 263.175 106.05V196.508Z" fill="#959E99"/>
<path d="M185.373 191.531C185.927 190.868 186.48 190.094 186.923 189.32L302.02 28.3096L167.445 152.606L110.671 109.81L151.84 188.988C152.062 189.43 152.504 189.762 152.726 190.204C152.836 190.426 153.058 190.647 153.168 190.868C153.611 191.421 153.943 191.974 154.386 192.527C154.828 192.969 155.271 193.301 155.714 193.633C160.915 198.277 167.998 199.936 174.417 198.277C174.528 198.277 174.528 198.277 174.638 198.277C175.856 197.945 176.962 197.614 178.069 197.061C178.291 196.95 178.401 196.839 178.623 196.839C179.619 196.397 180.504 195.844 181.5 195.181C181.832 194.96 182.053 194.738 182.385 194.517C182.828 194.185 183.271 193.854 183.713 193.522C184.045 193.19 184.267 192.858 184.599 192.527C184.709 192.416 184.931 192.306 185.041 192.084L185.373 191.531Z" fill="#959E99"/>
<path d="M302.02 28.4202L157.374 157.472C156.156 158.356 155.16 159.241 154.054 160.347C146.417 168.862 147.081 181.911 155.603 189.541C164.125 197.171 177.184 196.508 184.82 187.993L302.02 28.4202Z" fill="#959E99"/>
<path d="M110.56 109.92L151.73 184.896C152.504 186.113 153.279 187.329 154.386 188.435C162.133 196.839 175.302 197.282 183.603 189.43C191.903 181.689 192.456 168.53 184.599 160.236L110.56 109.92Z" fill="#959E99"/>
<path d="M444.675 217.187C403.838 217.187 376.281 191.31 376.281 152.827C376.281 114.897 404.391 88.4673 444.675 88.4673C471.236 88.4673 484.959 98.641 488.39 101.627L480.2 122.748C474.888 118.436 462.05 110.805 446.335 110.805C421.213 110.805 404.28 127.503 404.28 152.385C404.28 176.713 421.545 193.743 446.335 193.743C464.264 193.743 475.663 186.666 481.75 181.468L490.603 201.263C479.426 211.768 463.932 217.187 444.675 217.187Z" fill="#959E99"/>
<path d="M530.556 90.2366H503.331V214.975H530.556V90.2366Z" fill="#959E99"/>
<path d="M551.03 126.84H578.255V214.865H551.03V126.84ZM564.642 112.464C555.124 112.464 548.927 107.156 548.927 98.8621C548.927 90.7894 555.235 85.2603 564.642 85.2603C574.049 85.2603 580.357 90.6789 580.357 98.8621C580.468 107.156 574.27 112.464 564.642 112.464Z" fill="#959E99"/>
<path d="M643.882 216.966C613.227 216.966 592.642 198.609 592.642 171.184C592.642 143.649 613.227 125.181 643.882 125.181C674.427 125.181 695.012 143.649 695.012 171.184C695.012 198.609 674.427 216.966 643.882 216.966ZM643.882 144.865C629.716 144.865 620.199 155.26 620.199 170.631C620.199 186.002 629.716 196.397 643.882 196.397C658.048 196.397 667.566 186.002 667.566 170.631C667.566 155.26 658.048 144.865 643.882 144.865Z" fill="#959E99"/>
</svg>
