<svg width="1030" height="303" viewBox="0 0 1030 303" fill="none" xmlns="http://www.w3.org/2000/svg">
<path fill-rule="evenodd" clip-rule="evenodd" d="M447.686 241.312C445.528 238.174 442.782 237.39 438.86 239.547C433.172 242.685 426.111 244.842 419.247 244.842C399.633 244.842 385.904 231.311 385.904 212.092C385.904 192.874 399.437 179.343 419.247 179.343C425.719 179.343 433.172 181.108 438.86 184.637C442.782 186.795 445.332 186.402 447.686 182.872L449.843 179.735C452.001 176.205 451.608 173.263 448.47 170.91C439.644 165.223 430.622 162.674 419.639 162.674C404.341 162.674 390.807 167.968 381.197 177.578C371.979 186.795 367.271 198.953 367.271 212.484C367.271 226.016 372.175 238.37 381.197 247.391C390.807 257 403.948 262.295 419.639 262.295C431.015 262.295 440.233 259.746 449.451 253.47C452.001 251.313 452.589 248.568 450.235 245.234L447.686 241.312Z" fill="#959E99"/>
<path fill-rule="evenodd" clip-rule="evenodd" d="M494.169 188.56C473.183 188.56 456.512 204.837 456.512 225.232C456.512 245.627 473.183 261.903 494.169 261.903C515.548 261.903 532.219 245.627 532.219 225.232C531.827 205.033 514.763 188.56 494.169 188.56ZM494.169 246.215C482.793 246.215 473.967 236.998 473.967 225.232C473.967 213.465 482.793 204.248 494.169 204.248C505.545 204.248 514.371 213.465 514.371 225.232C513.782 236.998 505.153 246.215 494.169 246.215Z" fill="#959E99"/>
<path fill-rule="evenodd" clip-rule="evenodd" d="M583.409 188.56C573.406 188.56 565.561 192.874 562.031 200.326V196.404C562.031 192.482 559.873 190.325 555.951 190.325H549.871C545.948 190.325 543.791 192.482 543.791 196.404V254.059C543.791 257.981 545.948 260.138 549.871 260.138H555.951C559.873 260.138 562.031 257.981 562.031 254.059V226.016C562.031 218.564 565.561 204.052 579.487 204.052C586.94 204.052 591.255 210.131 591.255 220.721V253.667C591.255 257.589 593.412 259.746 597.335 259.746H603.415C607.337 259.746 609.495 257.589 609.495 253.667V219.937C609.691 200.326 600.08 188.56 583.409 188.56Z" fill="#959E99"/>
<path fill-rule="evenodd" clip-rule="evenodd" d="M746.591 190.128H740.511C736.589 190.128 734.431 192.286 734.431 196.208V199.345C729.136 192.286 720.898 188.364 711.68 188.364C692.067 188.364 677.553 203.66 677.553 225.035C677.553 246.019 692.067 261.707 711.68 261.707C721.29 261.707 729.136 257.785 734.431 250.725V253.863C734.431 257.785 736.589 259.942 740.511 259.942H746.591C750.514 259.942 752.671 257.785 752.671 253.863V196.208C752.671 192.482 750.514 190.128 746.591 190.128ZM714.622 246.215C703.246 246.215 695.401 237.39 695.401 225.231C695.401 213.073 703.246 204.248 714.622 204.248C725.997 204.248 734.235 213.073 734.235 225.231C734.235 237.39 726.39 246.215 714.622 246.215Z" fill="#959E99"/>
<path fill-rule="evenodd" clip-rule="evenodd" d="M805.235 204.248C807.393 204.248 812.296 204.64 817.003 206.798C820.926 208.563 823.475 208.17 825.829 205.033L827.594 202.875C828.967 201.111 829.359 199.346 828.967 197.973C828.575 196.6 827.594 195.423 825.829 194.051C817.591 189.148 809.55 187.971 804.451 187.971C780.915 187.971 764.636 203.268 764.636 225.232C764.636 246.215 781.307 261.119 804.451 261.119C809.354 261.119 816.611 260.334 824.064 256.216C826.221 254.843 827.986 253.078 828.379 251.314C828.771 249.549 828.379 248.176 827.006 246.411L825.241 244.254C823.083 241.116 820.337 240.724 816.415 242.881C811.119 245.43 805.431 245.43 804.647 245.43C791.506 245.43 782.288 236.606 782.288 224.447C782.876 212.877 792.094 204.248 805.235 204.248Z" fill="#959E99"/>
<path fill-rule="evenodd" clip-rule="evenodd" d="M884.865 242.293C884.08 241.508 883.492 240.92 882.707 240.92C881.923 240.92 880.942 241.312 880.157 242.293L879.765 242.685C879.373 243.469 877.215 245.234 874.077 245.822C873.293 245.822 872.312 246.215 871.528 245.822C867.605 245.43 865.448 242.685 865.448 237.586V203.856H882.119C884.276 203.856 885.649 202.483 885.649 200.326V193.266C885.649 191.109 884.276 189.736 882.119 189.736H865.448V183.657V176.597C865.448 172.675 863.29 170.518 859.367 170.518H853.68C849.757 170.518 847.599 172.675 847.599 176.597V189.344H840.539C838.381 189.344 837.008 190.717 837.008 192.874V199.934C837.008 202.091 838.381 203.464 840.539 203.464H847.599V210.916V237.586C847.599 258.961 862.506 262.099 871.135 262.099C874.273 262.099 876.823 261.707 879.373 261.315C880.746 260.923 881.923 260.53 883.296 259.55C885.453 258.765 886.826 257.393 888.591 255.628C889.376 254.843 890.356 253.863 890.749 253.078C892.121 251.706 891.533 249.941 890.356 248.176L884.865 242.293Z" fill="#959E99"/>
<path fill-rule="evenodd" clip-rule="evenodd" d="M666.57 242.293C665.785 241.508 665.197 240.92 664.412 240.92C663.628 240.92 662.647 241.312 661.862 242.293L661.47 242.685C661.078 243.469 658.92 245.234 656.174 245.822C655.39 245.822 654.409 246.215 653.625 245.822C649.702 245.43 647.545 242.685 647.545 237.586V203.856H664.216C666.373 203.856 667.746 202.483 667.746 200.326V193.266C667.746 191.109 666.373 189.736 664.216 189.736H647.545V183.657V176.597C647.545 172.675 645.387 170.518 641.465 170.518H635.777C631.854 170.518 629.697 172.675 629.697 176.597V189.344H622.636C620.478 189.344 619.105 190.717 619.105 192.874V199.934C619.105 202.091 620.478 203.464 622.636 203.464H629.697V210.916V237.586C629.697 258.961 644.603 262.099 653.232 262.099C656.371 262.099 658.92 261.707 661.47 261.315C662.843 260.923 664.02 260.53 665.393 259.55C667.55 258.765 668.923 257.393 670.688 255.628C671.473 254.843 672.453 253.863 672.846 253.078C674.219 251.706 673.63 249.941 672.454 248.176L666.57 242.293Z" fill="#959E99"/>
<path fill-rule="evenodd" clip-rule="evenodd" d="M447.686 118.55C445.528 115.412 442.782 114.628 438.86 116.785C433.172 119.923 426.111 122.08 419.247 122.08C399.633 122.08 385.904 108.549 385.904 89.3302C385.904 70.1119 399.437 56.5806 419.247 56.5806C425.719 56.5806 433.172 58.3455 438.86 61.8754C442.782 64.0326 445.332 63.6404 447.686 60.1105L449.843 56.9728C452.001 53.4429 451.608 50.5013 448.47 48.1481C439.644 42.461 430.622 39.9116 419.639 39.9116C404.341 39.9116 390.807 45.2065 381.197 54.8157C371.979 64.0326 367.271 76.1912 367.271 89.7224C367.271 103.254 372.175 115.608 381.197 124.629C390.807 134.238 403.948 139.533 419.639 139.533C431.015 139.533 440.233 136.984 449.451 130.709C452.001 128.551 452.589 125.806 450.235 122.472L447.686 118.55Z" fill="#959E99"/>
<path fill-rule="evenodd" clip-rule="evenodd" d="M494.169 65.6013C473.183 65.6013 456.512 81.8781 456.512 102.273C456.512 122.864 473.183 138.945 494.169 138.945C515.548 138.945 532.219 122.668 532.219 102.273C531.827 81.682 514.763 65.6013 494.169 65.6013ZM494.169 122.864C482.793 122.864 473.967 113.647 473.967 102.273C473.967 90.5067 482.793 81.2898 494.169 81.2898C505.545 81.2898 514.371 90.5067 514.371 102.273C513.782 113.647 505.153 122.864 494.169 122.864Z" fill="#959E99"/>
<path fill-rule="evenodd" clip-rule="evenodd" d="M583.409 65.6013C573.406 65.6013 565.561 69.9156 562.031 77.3677V73.4455C562.031 69.5234 559.873 67.3663 555.951 67.3663H549.871C545.948 67.3663 543.791 69.5234 543.791 73.4455V131.101C543.791 135.023 545.948 137.18 549.871 137.18H555.951C559.873 137.18 562.031 135.023 562.031 131.101V103.057C562.031 95.6055 565.561 81.0937 579.487 81.0937C586.94 81.0937 591.255 87.1729 591.255 97.7626V130.512C591.255 134.434 593.412 136.592 597.335 136.592H603.415C607.337 136.592 609.495 134.434 609.495 130.512V96.7821C609.691 77.3676 600.08 65.6013 583.409 65.6013Z" fill="#959E99"/>
<path fill-rule="evenodd" clip-rule="evenodd" d="M655.586 96.1937L646.368 93.0561C641.465 91.6833 639.896 89.5262 639.896 86.5846C639.896 82.6625 643.426 80.1131 647.741 80.1131C650.879 80.1131 653.429 80.8975 654.802 83.2508C656.959 85.8002 659.117 86.7807 662.647 86.3885L665.785 85.604C667.943 85.2118 669.708 83.8391 670.1 82.0741C670.492 80.7014 670.492 78.9364 669.316 77.1715C665.001 69.7195 657.548 65.7974 647.349 65.7974C632.835 65.7974 622.44 75.0143 622.44 87.7612C622.44 96.9782 628.52 104.038 641.269 107.96L650.095 111.098C655.39 112.863 657.155 115.02 657.155 117.569C657.155 121.491 653.233 124.629 647.545 124.629C643.23 124.629 638.719 122.864 636.562 119.726C634.404 117.177 632.247 115.412 628.716 116.197L625.186 116.981C623.028 117.373 621.263 118.746 620.871 120.119C620.479 121.491 620.479 123.256 621.263 125.021C625.578 133.846 635.189 138.945 647.545 138.945C665.981 138.945 674.219 127.963 674.219 116.981C674.023 110.117 670.885 100.9 655.586 96.1937Z" fill="#959E99"/>
<path fill-rule="evenodd" clip-rule="evenodd" d="M771.893 138.553C781.503 138.553 789.348 134.63 794.644 127.571V130.708C794.644 134.631 796.801 136.788 800.724 136.788H806.804C810.727 136.788 812.884 134.631 812.884 130.708V73.4455C812.884 69.5234 810.727 67.3663 806.804 67.3663H800.724C796.801 67.3663 794.644 69.5234 794.644 73.4455V76.5832C789.348 69.5234 781.111 65.6013 771.893 65.6013C752.279 65.6013 737.766 80.8976 737.766 102.273C737.373 123.256 751.887 138.553 771.893 138.553ZM775.031 80.8975C786.406 80.8975 794.644 89.7223 794.644 101.881C794.644 114.039 786.406 122.864 775.031 122.864C763.655 122.864 755.81 114.039 755.81 101.881C756.202 89.5262 764.047 80.8975 775.031 80.8975Z" fill="#959E99"/>
<path fill-rule="evenodd" clip-rule="evenodd" d="M868.978 65.6013C858.975 65.6013 851.13 69.9156 847.6 77.3677V73.4455C847.6 69.5234 845.442 67.3663 841.52 67.3663H835.439C831.517 67.3663 829.359 69.5234 829.359 73.4455V131.101C829.359 135.023 831.517 137.18 835.439 137.18H841.52C845.442 137.18 847.6 135.023 847.6 131.101V103.057C847.6 95.6055 851.13 81.0937 865.055 81.0937C872.508 81.0937 876.823 87.1729 876.823 97.7626V130.512C876.823 134.434 878.981 136.592 882.903 136.592H888.984C892.906 136.592 895.064 134.434 895.064 130.512V96.7821C895.26 77.3676 885.649 65.6013 868.978 65.6013Z" fill="#959E99"/>
<path fill-rule="evenodd" clip-rule="evenodd" d="M955.669 125.021L951.354 119.334C950.569 118.55 949.981 117.962 949.196 117.962C948.412 117.962 947.431 118.354 946.647 119.334L946.254 119.727C945.862 120.511 943.705 122.276 940.567 122.864C939.782 122.864 938.801 123.256 938.017 122.864C934.094 122.472 931.937 119.727 931.937 114.628V80.8976H948.608C950.765 80.8976 952.138 79.5249 952.138 77.3677V70.8962C952.138 68.7391 950.765 67.3663 948.608 67.3663H931.937V61.287V54.2272C931.937 50.3051 929.779 48.1479 925.857 48.1479H920.169C916.246 48.1479 914.089 50.3051 914.089 54.2272V66.9741H907.028C904.87 66.9741 903.498 68.3469 903.498 70.504V77.5638C903.498 79.721 904.87 81.0937 907.028 81.0937H914.089V113.843C914.089 135.219 928.995 138.357 937.625 138.357C940.763 138.357 943.312 137.964 945.862 137.572C947.235 137.18 948.412 136.788 949.785 135.807C951.942 135.023 953.315 133.65 955.08 131.885C955.865 131.101 956.846 130.12 957.238 129.336C957.434 128.159 957.434 126.394 955.669 125.021Z" fill="#959E99"/>
<path fill-rule="evenodd" clip-rule="evenodd" d="M682.653 81.2898H689.713V87.3691V114.039C689.713 135.415 704.619 138.553 713.249 138.553C716.387 138.553 718.937 138.16 721.487 137.768C722.86 137.376 724.037 136.984 725.409 136.003C727.567 135.219 728.94 133.846 730.705 132.081C731.489 131.297 732.47 130.316 732.862 129.532C734.235 128.159 733.647 126.394 732.47 124.629L728.155 118.942C727.371 118.158 726.782 117.569 725.998 117.569C725.213 117.569 724.233 117.962 723.448 118.942L723.056 119.334C722.664 120.119 720.506 121.884 717.76 122.472C716.976 122.472 715.995 122.864 715.211 122.472C711.288 122.08 709.13 119.334 709.13 114.236V80.5054H725.802C727.959 80.5054 729.332 79.1326 729.332 76.9755V70.8962C729.332 68.7391 727.959 67.3663 725.802 67.3663H709.13V61.287V54.2272C709.13 50.3051 706.973 48.1479 703.05 48.1479H697.362C693.44 48.1479 691.282 50.3051 691.282 54.2272V66.9741H684.222C682.064 66.9741 680.691 68.3468 680.691 70.504V77.5638C679.122 79.9171 680.495 81.2898 682.653 81.2898Z" fill="#959E99"/>
<path fill-rule="evenodd" clip-rule="evenodd" d="M230.371 128.552C232.529 135.023 238.609 139.141 245.669 139.141C247.435 139.141 249.2 138.749 250.965 138.357C259.203 135.219 263.714 126.198 260.576 117.766C255.28 103.254 244.297 91.8798 228.998 85.0161C221.153 81.4862 211.542 85.0161 207.62 92.8603C204.089 100.705 207.62 110.314 215.465 114.236C223.31 117.177 228.606 122.472 230.371 128.552Z" fill="#959E99"/>
<path fill-rule="evenodd" clip-rule="evenodd" d="M225.076 27.5569C216.25 25.792 208.012 31.479 206.247 40.3038C204.482 49.1285 210.17 57.365 218.996 59.1299C255.28 66.582 280.189 90.7029 286.269 126.002C287.642 133.846 294.506 139.141 301.96 139.141C302.744 139.141 303.725 139.141 304.509 138.749C313.335 136.984 319.023 128.747 317.65 120.315C309.02 72.0729 274.501 37.1661 225.076 27.5569Z" fill="#959E99"/>
<path fill-rule="evenodd" clip-rule="evenodd" d="M184.476 187.579C169.962 187.579 157.802 175.813 157.802 160.909C157.802 146.397 169.57 134.238 184.476 134.238C193.302 134.238 200.755 127.179 200.755 117.962C200.755 109.137 193.694 101.685 184.476 101.685C152.114 101.685 125.833 127.963 125.833 160.32C125.833 192.678 152.114 218.956 184.476 218.956C216.838 218.956 243.12 192.678 243.12 160.32C243.12 151.496 236.059 144.044 226.841 144.044C218.015 144.044 210.562 151.103 210.562 160.32C211.15 175.813 199.186 187.579 184.476 187.579Z" fill="#959E99"/>
<path fill-rule="evenodd" clip-rule="evenodd" d="M281.562 145.22C272.736 145.22 265.283 152.28 265.283 161.497C265.283 206.209 228.998 242.489 184.28 242.489C139.562 242.489 103.277 206.209 103.277 161.497C103.277 116.785 139.562 80.5054 184.28 80.5054C193.106 80.5054 200.559 73.4456 200.559 64.2286C200.559 55.4039 193.498 47.9519 184.28 47.9519C122.106 47.9519 71.5039 98.7432 71.5039 161.301C71.5039 223.466 122.302 274.062 184.28 274.062C246.454 274.062 297.056 223.27 297.056 161.301C297.252 152.084 290.192 145.22 281.562 145.22Z" fill="#959E99"/>
</svg>
