<svg width="802" height="481" viewBox="0 0 802 481" fill="none" xmlns="http://www.w3.org/2000/svg">
<path d="M727.26 467.964H74.4481C51.6034 467.964 33.0801 449.447 33.0801 426.613V54.0111C33.0801 31.1768 51.6034 12.6606 74.4481 12.6606H727.26C750.105 12.6606 768.628 31.1768 768.628 54.0111V426.605C768.628 449.448 750.105 467.964 727.26 467.964Z" fill="#A1E2B5" stroke="black" stroke-width="2"/>
<path d="M716.755 204.417V12.6606H727.261C750.105 12.6606 768.629 31.1768 768.629 54.0111V426.613C768.629 449.447 750.105 467.964 727.261 467.964H74.4483C57.4608 467.964 42.9373 457.692 36.5746 443.038H478.035C609.878 443.038 716.755 336.207 716.755 204.417Z" fill="#73BC8A" stroke="black" stroke-width="2"/>
<path d="M187.555 159.624H97.0747C88.0142 159.624 80.6768 152.282 80.6768 143.234V94.5348C80.6768 85.479 88.0218 78.144 97.0747 78.144H187.555C196.616 78.144 203.953 85.4866 203.953 94.5348V143.234C203.953 152.282 196.616 159.624 187.555 159.624Z" fill="#E7E7E5" stroke="black" stroke-width="2"/>
<path d="M195.037 249.454H89.5923C84.536 249.454 80.4385 245.366 80.4385 240.304C80.4385 235.241 84.536 231.154 89.5923 231.154H195.045C200.102 231.154 204.199 235.241 204.199 240.304C204.199 245.366 200.093 249.454 195.037 249.454Z" fill="#4A6953"/>
<path d="M349.095 249.454H243.65C238.594 249.454 234.496 245.366 234.496 240.304C234.496 235.241 238.594 231.154 243.65 231.154H349.103C354.159 231.154 358.257 235.241 358.257 240.304C358.257 245.366 354.151 249.454 349.095 249.454Z" fill="#4A6953"/>
<path d="M503.16 249.454H397.699C392.643 249.454 388.545 245.366 388.545 240.304C388.545 235.241 392.635 231.154 397.699 231.154H503.16C508.217 231.154 512.314 235.241 512.314 240.304C512.314 245.366 508.217 249.454 503.16 249.454Z" fill="#4A6953"/>
<path d="M657.218 249.454H551.757C546.701 249.454 542.603 245.366 542.603 240.304C542.603 235.241 546.692 231.154 551.757 231.154H657.218C662.274 231.154 666.372 235.241 666.372 240.304C666.372 245.366 662.274 249.454 657.218 249.454Z" fill="#4A6953"/>
<path d="M286.55 404.955H89.5923C84.536 404.955 80.4385 400.867 80.4385 395.805C80.4385 390.75 84.536 386.655 89.5923 386.655H286.55C291.607 386.655 295.704 390.742 295.704 395.805C295.704 400.867 291.607 404.955 286.55 404.955Z" fill="#172019"/>
<path d="M286.551 350.071H217.705C212.648 350.071 208.551 345.983 208.551 340.921C208.551 335.859 212.648 331.771 217.705 331.771H286.551C291.607 331.771 295.704 335.859 295.704 340.921C295.704 345.983 291.607 350.071 286.551 350.071Z" fill="#172019"/>
<path d="M635.706 325.971C622.758 325.971 611.334 331.984 603.68 341.224C596.018 331.984 584.594 325.971 571.654 325.971C548.594 325.971 529.893 344.665 529.893 367.716C529.893 390.767 548.594 409.46 571.654 409.46C584.602 409.46 596.026 403.447 603.68 394.207C611.343 403.447 622.766 409.46 635.706 409.46C658.767 409.46 677.468 390.767 677.468 367.716C677.468 344.656 658.767 325.971 635.706 325.971Z" fill="#172019"/>
<path d="M611.203 401.268C618.071 406.363 626.487 409.452 635.706 409.452C658.767 409.452 677.468 390.758 677.468 367.707C677.468 358.992 674.78 350.915 670.215 344.222C653.989 366.47 634.034 385.811 611.203 401.268Z" fill="black"/>
<line x1="116.219" y1="83.312" x2="116.219" y2="156.191" stroke="black" stroke-width="1.5"/>
<line x1="115.469" y1="104.468" x2="80.4729" y2="104.468" stroke="black" stroke-width="1.5"/>
<line x1="200.043" y1="104.468" x2="165.047" y2="104.468" stroke="black" stroke-width="1.5"/>
<line x1="115.469" y1="127.789" x2="80.4729" y2="127.789" stroke="black" stroke-width="1.5"/>
<line x1="200.043" y1="127.789" x2="165.047" y2="127.789" stroke="black" stroke-width="1.5"/>
<line x1="165.797" y1="83.312" x2="165.797" y2="156.191" stroke="black" stroke-width="1.5"/>
</svg>
