<svg width="1048" height="303" viewBox="0 0 1048 303" fill="none" xmlns="http://www.w3.org/2000/svg">
<path fill-rule="evenodd" clip-rule="evenodd" d="M269.426 137.879C269.426 196.997 221.463 244.945 162.326 244.945C103.154 244.945 55.2256 196.997 55.2256 137.879C55.2256 78.7617 103.189 30.8135 162.326 30.8135C221.463 30.8135 269.426 78.7617 269.426 137.879ZM84.9506 137.879C84.9506 114.879 103.607 96.2289 126.614 96.2289H156.374V208.062C147.846 208.062 140.92 201.137 140.92 192.612V111.713H126.614C112.169 111.713 100.44 123.439 100.44 137.879C100.44 152.319 112.169 164.045 126.614 164.045H132.566V179.495H126.614C103.572 179.495 84.9506 160.879 84.9506 137.879ZM239.701 137.879C239.701 160.844 221.045 179.495 198.038 179.495H168.278V67.6966C176.806 67.6966 183.732 74.6209 183.732 83.1458V164.045H198.038C212.483 164.045 224.212 152.319 224.212 137.879C224.212 123.439 212.483 111.713 198.038 111.713H192.086V96.2637H198.038C221.08 96.2637 239.701 114.914 239.701 137.879Z" fill="#959E99"/>
<path d="M370.706 270.903H354.121V228.943H353.842C349.557 235.559 341.125 239.703 331.857 239.703C311.684 239.703 299.245 223.685 299.245 204.36C299.245 185.034 312.52 169.539 331.439 169.539C343.599 169.539 351.055 175.458 354.365 180.716H354.783V171.454H370.671V270.903H370.706ZM335.202 225.879C347.362 225.879 354.678 214.98 354.678 204.604C354.678 194.227 347.362 183.049 335.202 183.049C322.38 183.049 316.143 193.948 316.143 204.325C316.143 214.667 322.345 225.879 335.202 225.879ZM445.127 237.753H429.379V227.098H429.1C426.208 233.714 418.334 239.668 408.509 239.668C391.227 239.668 384.05 226.401 384.05 212.891V171.454H400.635V208.19C400.635 216.06 402.411 225.844 413.073 225.844C423.735 225.844 428.543 216.721 428.543 207.912V171.454H445.127V237.718V237.753ZM461.782 170.026H478.366V236.325H461.782V170.026ZM540.35 189.84C537.737 186.114 532.058 183.328 526.657 183.328C514.497 183.328 508.4 194.227 508.4 204.604C508.4 214.98 514.637 225.879 527.18 225.879C532.301 225.879 537.946 223.79 541.151 219.96L551.499 230.441C545.959 236.36 536.831 239.703 527.04 239.703C507.424 239.703 491.119 226.715 491.119 204.638C491.119 182.562 507.146 169.574 526.622 169.574C536.308 169.574 546.377 173.439 551.639 179.916L540.315 189.84H540.35ZM559.861 133.36H576.446V199.346H576.864L602.02 171.454H623.308L594.564 201.435L625.12 237.753H603.17L576.899 203.768H576.481V237.753H559.896V133.395L559.861 133.36ZM649.23 133.36V179.916H649.648C653.098 175.633 659.718 169.574 671.912 169.574C690.831 169.574 704.106 184.756 704.106 204.395C704.106 224.034 691.667 239.738 671.494 239.738C662.226 239.738 653.237 235.455 648.708 227.864H648.429V237.823H632.68V133.395H649.265L649.23 133.36ZM668.149 183.084C655.99 183.084 648.673 194.262 648.673 204.638C648.673 215.015 655.99 225.914 668.149 225.914C681.006 225.914 687.208 214.736 687.208 204.36C687.208 193.983 681.006 183.084 668.149 183.084ZM747.31 169.539C767.344 169.539 783.371 183.502 783.371 204.36C783.371 225.218 767.344 239.703 747.31 239.703C727.276 239.703 711.249 225.218 711.249 204.36C711.249 183.502 727.276 169.539 747.31 169.539ZM747.31 225.879C760.445 225.879 766.508 214.702 766.508 204.325C766.508 193.948 760.445 183.049 747.31 183.049C734.174 183.049 728.112 193.948 728.112 204.325C728.112 214.702 734.174 225.879 747.31 225.879ZM826.679 169.539C846.713 169.539 862.74 183.502 862.74 204.36C862.74 225.218 846.713 239.703 826.679 239.703C806.645 239.703 790.618 225.218 790.618 204.36C790.618 183.502 806.645 169.539 826.679 169.539ZM826.679 225.879C839.815 225.879 845.877 214.702 845.877 204.325C845.877 193.948 839.815 183.049 826.679 183.049C813.544 183.049 807.481 193.948 807.481 204.325C807.481 214.667 813.544 225.879 826.679 225.879ZM872.775 133.36H889.359V199.346H889.777L914.933 171.454H936.187L907.477 201.435L937.999 237.753H916.048L889.777 203.768H889.359V237.753H872.775V133.395V133.36ZM983.258 189.143C980.366 185.278 974.826 181.97 968.764 181.97C963.537 181.97 958.102 183.92 958.102 189.178C958.102 194.436 963.224 195.689 972.457 197.883C982.282 200.251 993.885 204.638 993.885 217.627C993.885 233.783 980.749 239.738 966.255 239.738C956.046 239.738 945.385 235.873 939.009 228.839L949.914 218.636C953.503 223.337 959.74 226.924 966.917 226.924C971.76 226.924 977.579 224.974 977.579 219.054C977.579 213.518 972.457 211.881 962.388 209.513C952.562 207.145 942.772 203.176 942.772 190.745C942.772 175.946 956.046 169.643 969.182 169.643C978.694 169.643 988.658 172.951 994.059 179.707L983.328 189.248L983.258 189.143ZM480.91 80.9894C480.91 97.8079 494.359 110.065 511.466 110.065C528.573 110.065 542.057 97.8079 542.057 80.9894V42.4079H525.472V79.0395C525.472 88.0929 519.41 94.1866 511.431 94.1866C503.452 94.1866 497.355 88.1277 497.355 79.0395V42.4079H480.805L480.91 80.9894ZM586.376 57.9032H606.166V108.742H622.716V57.9032H642.471V42.4079H586.376V57.9032ZM575.645 42.4079H559.095V108.777H575.645V42.4079ZM414.049 57.9032H433.839V108.742H450.389V57.9032H470.144V42.4079H414.083V57.9032H414.049ZM327.153 42.4079H310.604V108.777H327.153V42.4079ZM405.338 70.1602C405.338 53.3417 391.854 41.0847 374.747 41.0847C357.64 41.0847 344.156 53.3417 344.156 70.1602V108.742H360.706V72.1101C360.706 63.0567 366.768 56.963 374.747 56.963C382.726 56.963 388.788 63.0219 388.788 72.1101V108.742H405.338V70.1602Z" fill="#959E99"/>
</svg>
