<svg width="78" height="75" viewBox="0 0 78 75" fill="none" xmlns="http://www.w3.org/2000/svg">
<path d="M36.1468 2.78115C37.0449 0.0172199 40.9551 0.0172209 41.8532 2.78115L48.8786 24.4032C49.2802 25.6393 50.4321 26.4762 51.7318 26.4762H74.4666C77.3728 26.4762 78.5811 30.195 76.23 31.9033L57.8371 45.2664C56.7856 46.0304 56.3457 47.3845 56.7473 48.6205L63.7727 70.2427C64.6708 73.0066 61.5074 75.305 59.1562 73.5968L40.7634 60.2336C39.7119 59.4696 38.2881 59.4696 37.2366 60.2336L18.8438 73.5968C16.4926 75.305 13.3292 73.0066 14.2273 70.2427L21.2527 48.6206C21.6543 47.3845 21.2144 46.0304 20.1629 45.2664L1.77004 31.9033C-0.581105 30.195 0.627223 26.4762 3.53339 26.4762H26.2682C27.5679 26.4762 28.7198 25.6393 29.1214 24.4033L36.1468 2.78115Z" fill="#1EA669"/>
</svg>
