<svg width="784" height="303" viewBox="0 0 784 303" fill="none" xmlns="http://www.w3.org/2000/svg">
<path d="M422.237 18.9903C447.638 18.1165 473.204 21.9349 497.161 30.4315C533.202 43.0767 565.413 66.2501 588.982 96.2675C599.35 109.437 608.034 123.912 614.84 139.227C616.047 141.775 616.977 144.64 616.33 147.479C615.539 152.246 611.358 156.187 606.55 156.663C601.556 157.393 596.395 154.278 594.615 149.575C581.081 117.744 557.983 90.095 529.171 70.9559C511.359 59.0597 491.382 50.397 470.513 45.5471C443.6 39.2554 415.265 39.2554 388.347 45.5279C349.913 54.3737 314.721 76.4078 289.901 107.024C279.377 119.924 270.688 134.304 264.137 149.603C262.72 153.158 259.462 155.945 255.662 156.569C251.997 157.276 248.007 156.011 245.452 153.283C242.439 150.266 241.454 145.444 243.007 141.484C261.036 98.8827 294.418 63.0947 335.46 41.7925C362.192 27.8085 392.096 20.0083 422.237 18.9903Z" fill="#959E99"/>
<path d="M388.672 150.16C388.52 147.948 390.614 146.292 392.689 146.24C395.386 146.167 398.091 146.19 400.794 146.228C402.672 146.292 404.863 147.543 404.856 149.651C404.952 174.405 404.797 199.167 404.939 223.936C414.974 212.783 425.095 201.691 435.166 190.571C437.15 188.616 438.717 185.655 441.803 185.4C445.959 185.228 450.126 185.33 454.288 185.336C455.891 185.192 457.681 186.661 457.118 188.372C456.46 189.692 455.254 190.599 454.268 191.647C443.379 202.523 432.447 213.36 421.613 224.282C432.078 236.223 442.399 248.285 452.817 260.27C454.158 261.976 455.836 263.423 456.96 265.303C457.784 266.773 456.418 268.561 454.842 268.631C451.383 268.825 447.915 268.631 444.447 268.714C442.644 268.672 440.693 268.936 439.056 268.007C437.33 267.017 436.282 265.248 435.047 263.759C424.998 251.111 415.015 238.414 404.93 225.788C404.827 238.239 404.9 250.684 404.891 263.126C404.853 264.563 405.147 266.293 403.895 267.341C401.903 269.263 398.938 268.589 396.452 268.714C394.246 268.639 391.665 269.121 389.873 267.494C388.875 266.717 388.613 265.392 388.652 264.213C388.68 226.19 388.641 188.173 388.672 150.16Z" fill="#959E99"/>
<path d="M342.896 185.127C347.935 183.508 353.614 183.2 358.549 185.335C360.281 186.148 362.293 187.881 361.51 190.016C360.719 192.698 360.045 195.409 359.102 198.044C358.405 199.935 356.211 200.637 354.363 200.268C350.207 199.555 346.126 198.183 341.864 198.321C338.89 198.252 336.146 199.846 334.112 201.913C330.83 205.12 329.132 209.607 328.369 214.058C327.764 217.274 327.936 220.56 327.909 223.81C327.909 237.467 327.914 251.133 327.906 264.79C328.1 267.036 325.775 268.561 323.747 268.638C320.961 268.677 318.181 268.713 315.398 268.616C313.387 268.511 311.123 267.044 311.384 264.781C311.373 239.492 311.356 214.211 311.39 188.921C311.218 186.406 314.005 185.039 316.192 185.274C318.936 185.455 322.681 184.423 324.465 187.182C325.819 190.382 326.463 193.838 327.734 197.065C331.56 191.819 336.632 187.193 342.896 185.127Z" fill="#959E99"/>
<path d="M58.8555 187.058C59.6295 186.17 60.534 185.211 61.8241 185.302C65.6029 185.266 69.3928 185.183 73.1689 185.358C75.0861 185.413 76.4067 187.097 76.6869 188.879C80.4019 203.979 84.0503 219.1 87.7487 234.204C88.8335 238.868 90.1541 243.485 90.8616 248.23C91.5913 252.492 91.7356 256.818 92.4292 261.088C93.3836 254.993 94.2381 248.859 95.8834 242.905C100.719 224.878 105.552 206.854 110.394 188.833C110.771 186.777 112.705 185.316 114.761 185.316C118.967 185.211 123.181 185.283 127.387 185.283C129.643 185.177 132.057 186.495 132.6 188.805C136.213 201.946 139.781 215.112 143.379 228.264C145.563 236.783 148.423 245.157 149.658 253.898C149.999 256.305 150.332 258.717 150.829 261.107C152.185 247.376 155.72 234.015 158.628 220.569C161.028 209.871 163.375 199.162 165.802 188.463C166.16 186.315 168.435 185.233 170.439 185.294C173.84 185.275 177.247 185.177 180.643 185.35C182.66 185.408 183.819 187.637 183.109 189.434C176.284 214.605 169.484 239.791 162.657 264.962C162.29 266.981 160.531 268.556 158.47 268.589C153.198 268.761 147.916 268.63 142.644 268.658C140.755 268.775 138.757 267.763 138.424 265.774C133.705 248.465 129.08 231.126 124.405 213.803C122.712 207.777 122.027 201.53 121.317 195.332C120.448 200.851 120.018 206.46 118.548 211.882C113.762 229.717 108.948 247.561 104.151 265.4C103.61 268.289 100.306 268.866 97.8477 268.678C92.9452 268.589 88.0428 268.791 83.1458 268.589C81.4007 268.594 80.0551 267.236 79.7416 265.589C72.861 240.518 66.0025 215.436 59.1163 190.372C58.8777 189.276 58.9082 188.159 58.8555 187.058Z" fill="#959E99"/>
<path d="M677.105 185.35C680.684 185.289 684.277 185.275 687.856 185.35C690.033 185.38 692.081 186.869 692.766 188.949C698.948 205.093 705.085 221.268 711.258 237.421C712.548 240.698 713.45 244.117 714.027 247.589C716.579 238.008 719.978 228.685 722.961 219.23C726.282 209.006 729.606 198.779 732.94 188.552C733.435 186.772 735.132 185.558 736.935 185.408C739.857 185.192 742.798 185.38 745.725 185.302C747.437 185.322 749.477 185.122 750.781 186.495C751.627 187.21 751.446 188.4 751.094 189.329C741.217 217.488 731.368 245.662 721.504 273.83C719.79 278.522 718.472 283.433 715.711 287.653C711.752 294.081 705.335 298.709 698.282 301.213C695.818 301.976 693.274 303.667 690.624 302.719C688.744 302.239 688.022 300.284 687.018 298.848C686.297 297.544 684.965 296.338 685.242 294.716C685.373 293.108 686.663 291.799 688.183 291.369C691.157 290.343 694.181 289.212 696.59 287.112C702.444 282.163 706.065 274.842 707.443 267.391C706.509 264.083 704.78 261.041 703.525 257.838C694.107 235.959 684.687 214.072 675.246 192.202C674.677 190.771 673.839 189.406 673.678 187.854C673.7 186.149 675.656 185.4 677.105 185.35Z" fill="#959E99"/>
<path d="M237.924 195.931C232.786 196.885 228.1 200.083 225.492 204.636C221.134 212.02 220.632 220.93 220.828 229.304C221.139 236.885 222.357 244.971 227.196 251.1C230.805 255.708 236.737 258.024 242.503 257.935C248.048 258.113 253.858 256.235 257.618 252.02C262.42 246.771 263.963 239.486 264.623 232.618C264.914 225.871 265.051 219.003 263.3 212.414C261.907 206.849 258.966 201.283 253.878 198.285C249.142 195.382 243.29 195.111 237.924 195.931ZM240.094 183.924C249.392 183.353 259.133 185.283 266.806 190.788C273.67 195.668 278.332 203.189 280.509 211.252C283.098 220.88 283.087 231.154 280.74 240.831C278.529 249.752 273.357 258.162 265.556 263.232C257.218 268.761 246.744 270.197 236.959 269.019C228.622 267.993 220.498 264.338 214.694 258.199C207.872 251.055 204.484 241.214 203.779 231.487C202.922 220.699 204.575 209.281 210.579 200.069C215.021 193.136 222.083 188.042 229.959 185.718C233.244 184.693 236.671 184.215 240.094 183.924Z" fill="#959E99"/>
<path d="M514.341 195.493C509.244 195.821 504.325 198.752 502.05 203.402C497.605 212.001 497.514 222.008 497.736 231.465C498.091 237.642 498.762 244.02 501.642 249.6C503.59 253.357 507.128 256.324 511.311 257.234C517.712 258.773 525.245 257.469 529.795 252.414C534.179 247.426 535.621 240.643 536.295 234.223C536.758 226.906 536.787 219.438 534.969 212.275C533.721 207.486 531.607 202.703 527.811 199.375C524.171 196.173 519.099 194.938 514.341 195.493ZM536.273 149.101C536.157 147.16 538.14 145.921 539.866 145.771C542.626 145.621 545.396 145.693 548.162 145.724C550.27 145.704 552.628 147.271 552.324 149.612C552.324 187.807 552.331 225.996 552.318 264.185C552.462 266.157 550.52 267.688 548.697 267.807C546.497 267.923 544.291 267.923 542.099 267.771C540.554 267.674 539.056 266.684 538.529 265.206C537.702 262.724 537.272 260.145 536.642 257.622C533.591 261.759 529.656 265.419 524.768 267.236C517.795 269.801 510.035 269.842 502.869 268.095C495.669 266.365 489.399 261.421 485.925 254.913C480.473 244.977 479.827 233.289 480.168 222.206C480.362 212.736 482.171 202.745 488.344 195.23C493 188.86 500.629 185.205 508.334 184.249C515.507 183.2 523.283 184.406 529.22 188.75C532.028 190.724 534.275 193.372 536.282 196.139C536.226 180.464 536.24 164.782 536.273 149.101Z" fill="#959E99"/>
<path d="M613.444 195.97C610.886 196.491 608.408 197.517 606.341 199.117C602.208 202.333 600.154 207.444 599.058 212.408C597.463 220.283 597.485 228.417 598.31 236.38C599.081 242.231 600.551 248.476 604.844 252.802C608.339 256.47 613.611 257.815 618.544 257.574C623.849 257.765 629.37 255.791 632.791 251.626C637.069 246.454 638.276 239.575 638.9 233.094C639.297 225.474 639.302 217.671 637.16 210.273C635.807 205.664 633.331 201.08 629.156 198.455C624.556 195.438 618.738 195.16 613.444 195.97ZM606.341 185.51C613.703 183.472 621.582 183.352 629.017 185.053C635.926 186.653 642.396 190.529 646.641 196.269C651.13 202.153 653.396 209.449 654.339 216.72C655.158 222.326 654.923 228.006 654.93 233.654C654.93 243.848 654.93 254.044 654.903 264.235C655.014 265.477 654.229 266.578 653.216 267.224C651.504 268.278 649.382 267.812 647.473 267.931C645.331 267.915 642.515 268.103 641.349 265.876C640.212 263.259 639.977 260.339 639.246 257.585C636.375 261.074 633.401 264.673 629.245 266.689C622.913 269.817 615.511 269.634 608.736 268.311C600.446 266.675 592.81 261.775 588.122 254.715C582.537 246.493 580.511 236.344 580.589 226.536C580.52 216.975 582.392 207.09 587.711 199C591.964 192.387 598.789 187.598 606.341 185.51Z" fill="#959E99"/>
<path d="M754.609 248.138C750.4 249.682 747.75 254.535 748.824 258.916C749.92 264.06 755.907 267.571 760.902 265.669C765.507 264.263 768.412 259.014 766.983 254.385C765.728 249.178 759.547 246.1 754.609 248.138ZM755.192 245.939C757.688 245.545 760.402 245.517 762.718 246.674C766.664 248.465 769.5 252.699 769.072 257.103C769.401 262.355 764.98 267.05 759.936 267.895C754.256 269.102 748.145 264.989 746.988 259.327C745.495 253.628 749.456 247.215 755.192 245.939Z" fill="#959E99"/>
<path d="M756.365 252.339C756.357 253.531 756.351 254.724 756.365 255.924C757.411 255.861 758.487 255.924 759.519 255.639C760.49 255.237 760.394 254.003 760.13 253.176C759.126 252.195 757.633 252.45 756.365 252.339ZM753.208 250.398C756.227 250.57 759.611 249.718 762.33 251.402C764.522 253.046 763.459 256.623 760.985 257.386C761.698 259.271 762.691 261.024 763.598 262.821C762.455 262.843 761.331 262.862 760.208 262.882C759.395 261.218 758.598 259.535 757.822 257.857C757.328 257.843 756.842 257.838 756.365 257.829C756.357 259.507 756.357 261.185 756.357 262.862C755.288 262.849 754.243 262.835 753.194 262.826C753.202 258.681 753.188 254.535 753.208 250.398Z" fill="#959E99"/>
</svg>
